<?xml version="1.0" encoding="utf-8"?>
<!-- Generator: Adobe Illustrator 22.1.0, SVG Export Plug-In . SVG Version: 6.00 Build 0)  -->
<svg version="1.1" id="Layer_1" xmlns:svgjs="http://svgjs.com/svgjs"
	 xmlns="http://www.w3.org/2000/svg" xmlns:xlink="http://www.w3.org/1999/xlink" x="0px" y="0px" viewBox="0 0 68 72"
	 style="enable-background:new 0 0 68 72;" xml:space="preserve">
<style type="text/css">
	.st0{fill:none;}
</style>
<path class="st0" d="M64,64c-0.7,0-1.4,0.2-2,0.5l-3.6-6.9C64.3,51.5,68,43.2,68,34C68,15.3,52.7,0,34,0C15.3,0,0,15.3,0,34
	c0,9.2,3.7,17.5,9.6,23.7L6,64.6C5.4,64.2,4.7,64,4,64c-2.2,0-4,1.8-4,4c0,2.2,1.8,4,4,4c1.4,0,2.5-0.7,3.3-1.7h23.5
	c0.7,1,1.9,1.7,3.3,1.7s2.5-0.7,3.3-1.7h23.5c0.7,1,1.9,1.7,3.3,1.7c2.2,0,4-1.8,4-4C68,65.8,66.2,64,64,64z M2,34
	C2,16.3,16.3,2,34,2c17.7,0,32,14.4,32,32c0,8.4-3.3,16.1-8.6,21.8L34,11.1L10.6,55.8C5.2,50.1,2,42.4,2,34z M34,64
	c-1.4,0-2.6,0.7-3.4,1.8C23.5,65.1,17,62,12.1,57.3L34,15.4l21.9,41.9c-5,4.7-11.4,7.8-18.6,8.5C36.6,64.8,35.4,64,34,64z M8,68.3
	c0-0.1,0-0.2,0-0.3c0-0.7-0.2-1.4-0.5-1.9l3.6-6.9c5.1,4.7,11.7,7.8,18.9,8.6c0,0.1,0,0.2,0,0.2c0,0.1,0,0.2,0,0.3H8z M38,68.3
	c0-0.1,0-0.2,0-0.3c0-0.1,0-0.2,0-0.2c7.2-0.8,13.8-4,18.9-8.6l3.6,6.9C60.2,66.6,60,67.3,60,68c0,0.1,0,0.2,0,0.3H38z"/>
</svg>
