<?xml version="1.0" encoding="utf-8"?>
<!-- Generator: Adobe Illustrator 22.1.0, SVG Export Plug-In . SVG Version: 6.00 Build 0)  -->
<svg version="1.1" id="Layer_1" xmlns="http://www.w3.org/2000/svg" xmlns:xlink="http://www.w3.org/1999/xlink" x="0px" y="0px"
	 viewBox="0 0 23.3 37.2" style="enable-background:new 0 0 23.3 37.2;" xml:space="preserve">
<style type="text/css">
	.st0{fill:#FFFFFF;}
</style>
<path class="st0" d="M11.7,9.9c-0.9,0-1.7,0.7-1.7,1.7c0,0.9,0.7,1.7,1.7,1.7c0.9,0,1.7-0.7,1.7-1.7C13.3,10.7,12.6,9.9,11.7,9.9z"
	/>
<path class="st0" d="M11.8,37.1h-0.2C5.3,37.1,0.3,32,0.3,25.7V11.4c0-6.2,5.1-11.3,11.3-11.3h0.2c6.2,0,11.3,5.1,11.3,11.3v14.3
	C23.1,32,18,37.1,11.8,37.1z M11.6,1.9C6.3,1.9,2,6.2,2,11.4v14.3c0,5.3,4.3,9.6,9.6,9.6h0.2c5.3,0,9.6-4.3,9.6-9.6V11.4
	c0-5.3-4.3-9.6-9.6-9.6H11.6z"/>
</svg>
